<?xml version="1.0" encoding="UTF-8" standalone="no"?>
<svg
   xmlns:dc="http://purl.org/dc/elements/1.1/"
   xmlns:cc="http://creativecommons.org/ns#"
   xmlns:rdf="http://www.w3.org/1999/02/22-rdf-syntax-ns#"
   xmlns:svg="http://www.w3.org/2000/svg"
   xmlns="http://www.w3.org/2000/svg"
   xmlns:sodipodi="http://sodipodi.sourceforge.net/DTD/sodipodi-0.dtd"
   xmlns:inkscape="http://www.inkscape.org/namespaces/inkscape"
   version="1.0"
   width="1331.000000pt"
   height="1204.000000pt"
   viewBox="0 0 1331.000000 1204.000000"
   preserveAspectRatio="xMidYMid meet"
   id="svg20"
   sodipodi:docname="logo-noir-blanc.svg"
   inkscape:version="0.92.2 2405546, 2018-03-11">
  <defs
     id="defs24" />
  <sodipodi:namedview
     pagecolor="#ffffff"
     bordercolor="#666666"
     borderopacity="1"
     objecttolerance="10"
     gridtolerance="10"
     guidetolerance="10"
     inkscape:pageopacity="0"
     inkscape:pageshadow="2"
     inkscape:window-width="3200"
     inkscape:window-height="1716"
     id="namedview22"
     showgrid="false"
     inkscape:zoom="0.83161395"
     inkscape:cx="1300.3951"
     inkscape:cy="731.4686"
     inkscape:window-x="0"
     inkscape:window-y="84"
     inkscape:window-maximized="1"
     inkscape:current-layer="svg20" />
  <metadata
     id="metadata2">
Created by potrace 1.15, written by Peter Selinger 2001-2017
<rdf:RDF>
  <cc:Work
     rdf:about="">
    <dc:format>image/svg+xml</dc:format>
    <dc:type
       rdf:resource="http://purl.org/dc/dcmitype/StillImage" />
  </cc:Work>
</rdf:RDF>
</metadata>
  <g
     transform="translate(0.000000,1204.000000) scale(0.100000,-0.100000)"
     fill="#000000"
     stroke="none"
     id="g18">
    <path
       d="M8903 11415 c-222 -40 -365 -218 -367 -460 0 -61 5 -91 21 -127 l21 -47 -708 -613 -708 -613 322 -3 321 -3 60 64 c33 35 246 257 474 493 228 236 419 435 426 442 10 11 23 10 73 -7 150 -51 359 -2 471 110 99 99 146 252 121 397 -31 183 -149 316 -318 356 -92 23 -132 25 -209 11z"
       id="path4"
       style="fill:#ffffff" />
    <path
       d="M4335 11413 c-163 -22 -300 -112 -359 -237 -37 -77 -59 -187 -51 -251 31 -245 182 -389 430 -411 55 -5 87 -2 150 15 l80 22 155 -161 c85 -89 304 -316 485 -505 l330 -343 325 -1 325 0 -37 32 c-20 18 -340 295 -711 616 l-675 584 21 46 c30 67 29 192 -2 286 -56 171 -160 261 -345 299 -41 9 -79 15 -83 15 -4 -1 -21 -4 -38 -6z"
       id="path6"
       style="fill:#ffffff" />
    <path
       d="M2825 9169 c-412 -59 -650 -261 -758 -644 l-22 -80 -3 -2955 c-3 -2721 -2 -2963 14 -3050 69 -397 288 -629 669 -709 l100 -21 3975 2 3975 3 99 27 c325 90 514 279 603 603 l28 100 3 2950 c2 2141 0 2972 -8 3029 -26 178 -91 342 -184 456 -109 136 -254 217 -493 277 -64 16 -327 17 -4003 19 -2164 1 -3962 -2 -3995 -7z m6115 -799 c265 -54 442 -223 513 -490 l22 -85 0 -2365 0 -2365 -28 -90 c-41 -132 -81 -200 -167 -285 -85 -86 -153 -126 -285 -167 l-90 -28 -2700 -3 c-1881 -2 -2720 1 -2765 8 -336 55 -531 249 -586 580 -12 71 -14 458 -14 2368 0 2259 0 2285 20 2385 61 300 262 496 562 546 30 5 1228 9 2738 10 2627 1 2687 0 2780 -19z m2075 -314 c59 -25 69 -59 73 -245 5 -211 0 -245 -43 -288 l-33 -33 -507 0 -507 0 -34 34 -34 34 0 211 c0 238 4 255 65 282 37 17 77 19 513 19 386 0 479 -3 507 -14z m30 -1129 c43 -43 48 -79 43 -294 -3 -141 -6 -172 -21 -195 -39 -58 -41 -58 -561 -58 -523 0 -530 1 -560 59 -13 24 -16 69 -16 239 0 199 1 211 21 236 12 15 31 32 43 36 11 5 245 9 520 9 l498 1 33 -33z m-26 -1070 c13 -6 34 -25 45 -40 19 -26 21 -44 24 -215 4 -216 -4 -253 -57 -289 l-34 -23 -498 0 -499 0 -32 29 -33 29 -3 222 c-3 246 -1 258 61 285 44 20 989 21 1026 2z m-406 -2153 c88 -23 146 -55 200 -113 58 -62 92 -131 108 -224 22 -121 -19 -253 -108 -348 -204 -219 -585 -142 -685 138 -47 131 -31 272 43 383 57 84 120 128 234 161 76 22 131 23 208 3z"
       id="path8"
       style="fill:#ffffff" />
    <path
       d="M6610 6700 c-166 -38 -342 -149 -450 -283 -65 -81 -135 -221 -160 -322 -19 -77 -20 -118 -20 -1113 l0 -1032 273 2 272 3 5 1010 c5 945 6 1013 23 1050 26 58 71 99 139 130 49 22 71 26 117 23 102 -7 192 -67 235 -158 21 -45 21 -47 24 -1053 l3 -1007 272 2 272 3 5 1010 c5 999 5 1010 26 1055 24 53 69 94 139 126 123 58 281 0 342 -123 l28 -58 3 -1007 3 -1008 275 0 275 0 -4 1048 c-3 1177 3 1083 -82 1257 -85 175 -213 302 -390 386 -133 63 -234 83 -380 76 -168 -8 -304 -55 -442 -153 -34 -24 -66 -44 -71 -44 -5 0 -35 19 -66 41 -72 52 -171 100 -262 129 -101 32 -289 37 -404 10z"
       id="path10"
       style="fill:#ffffff" />
    <path
       d="M4100 6664 c-181 -38 -370 -161 -483 -313 -107 -144 -158 -302 -159 -486 0 -147 18 -228 77 -351 96 -198 255 -346 453 -420 124 -47 189 -54 527 -54 188 0 334 -4 365 -11 73 -16 137 -63 174 -129 27 -48 31 -64 30 -130 0 -110 -43 -184 -135 -235 l-54 -30 -645 -5 -645 -5 0 -270 0 -270 655 -3 c714 -3 716 -2 860 55 217 87 405 279 474 485 47 141 60 322 31 448 -65 278 -258 501 -518 598 -113 43 -135 45 -522 51 -379 6 -380 6 -428 31 -93 47 -146 133 -147 237 0 108 52 196 145 246 40 22 45 22 708 25 l667 3 0 274 0 275 -682 -1 c-544 0 -696 -3 -748 -15z"
       id="path12"
       style="fill:#ffffff" />
    <path
       d="M3272 1108 c3 -223 9 -245 71 -292 28 -20 40 -21 430 -24 545 -3 510 -23 515 304 l3 214 -511 0 -512 0 4 -202z"
       id="path14"
       style="fill:#ffffff" />
    <path
       d="M9242 1101 c3 -233 5 -239 78 -289 33 -22 35 -22 427 -22 378 0 395 1 434 21 70 35 79 69 79 302 l0 197 -511 0 -510 0 3 -209z"
       id="path16"
       style="fill:#ffffff" />
  </g>
</svg>
